<?xml version="1.0" encoding="utf-8"?>
<!-- Generator: Adobe Illustrator 16.0.0, SVG Export Plug-In . SVG Version: 6.00 Build 0)  -->
<!DOCTYPE svg PUBLIC "-//W3C//DTD SVG 1.1//EN" "http://www.w3.org/Graphics/SVG/1.1/DTD/svg11.dtd">
<svg version="1.1" id="Layer_1" xmlns="http://www.w3.org/2000/svg" xmlns:xlink="http://www.w3.org/1999/xlink" x="0px" y="0px"
	 width="512px" height="512px" viewBox="0 0 512 512" enable-background="new 0 0 512 512" xml:space="preserve">
<circle fill="#E68B1E" cx="256" cy="256" r="256"/>
<g>
	<path fill="#975219" d="M306.438,293.248c0-14.28-3.61-22.545-7.483-27.302c-3.485-4.285-8.956-6.52-14.471-6.164
		c-5.928,0.38-9.925,1.395-12.564,2.446c-5.064,2.03-10.46,2.997-15.919,2.997c-5.46,0-10.855-0.967-15.923-2.997
		c-2.651-1.053-6.668-2.08-12.642-2.454c-4.971-0.312-10.021,1.396-13.412,5.045c-4.22,4.54-8.462,12.951-8.462,28.429v1.128
		c0,12.879,3.39,25.488,9.532,36.812c6.104,11.255,12.885,26.838,12.885,40.519c0,0-4.029,39.229,28.02,39.229
		c32.05,0,28.021-39.229,28.021-39.229c0-13.681,6.78-29.267,12.885-40.519c6.143-11.326,9.533-23.936,9.533-36.812V293.248
		L306.438,293.248z"/>
	<path fill="#BA7949" d="M138.314,265.641c0,0,9.454,12.906,14.185,26.227c5.089,14.33,15.461,26.44,29.776,31.564
		c7.897,2.828,23.128,4.185,34.498,3.444l-5.604-22.006l-2.6-5.274c-8.351-16.947-23.986-29.557-42.592-32.856
		C158.191,265.354,148.995,264.766,138.314,265.641"/>
	<path fill="#7F4011" d="M211.163,321.27c-0.981,0-1.978-0.258-2.881-0.802l-28.021-16.812c-2.651-1.591-3.514-5.032-1.918-7.688
		c1.592-2.652,5.027-3.521,7.69-1.919l28.02,16.813c2.651,1.592,3.515,5.032,1.917,7.689
		C214.922,320.302,213.067,321.27,211.163,321.27"/>
	<path fill="#BA7949" d="M373.688,265.641c0,0-9.455,12.906-14.185,26.227c-5.09,14.33-15.461,26.44-29.775,31.564
		c-7.897,2.828-23.128,4.185-34.5,3.444l5.604-22.006l2.601-5.274c8.35-16.947,23.983-29.557,42.592-32.856
		C353.811,265.354,363.007,264.766,373.688,265.641"/>
	<path fill="#7F4011" d="M300.841,321.27c-1.905,0-3.761-0.968-4.81-2.717c-1.597-2.657-0.733-6.098,1.917-7.689l28.021-16.813
		c2.664-1.602,6.1-0.733,7.69,1.919c1.597,2.655,0.734,6.097-1.916,7.688l-28.021,16.812
		C302.818,321.012,301.82,321.27,300.841,321.27"/>
	<g>
		<path fill="#E7E3BE" d="M407.314,203.583h-16.812c15.147-11.411,24.366-24.098,27.353-38.3c1.72-8.182,0.094-16.083-4.696-22.894
			c-2.842-5.184-0.37-18.791,1.394-26.889c0.858-3.962-0.355-8.065-3.22-10.928c-6.702-6.704-18.383-3.312-20.088,6.014
			c-2.572,14.061-1.121,30.907,2.276,37.822c-3.599-2.825-7.811-5.409-12.223-7.381c-7.431-3.33-15.798,2.392-15.798,10.536v0.375
			c0,4.102,2.269,7.768,5.76,9.914c4.558,2.803,10.251,7.868,15.312,13.041c-8.099,8.317-20.868,17.759-36.52,26.693
			c-3.281,1.871-7.174,2.999-10.892,3.946c-3.396,0.856-10.307,3.653-10.307,3.653v-44.833c-6.029,0-9.582,3.429-13.578,8.086
			c-11.747,13.68-8.399,44.772-6.866,55.263c-6.847,8.154-16.969,21.531-24.725,32.158c0.279-0.021,0.511-0.062,0.802-0.08
			c5.513-0.354,10.984,1.882,14.469,6.164c0.961,1.178,1.902,2.572,2.775,4.221c11.719-17.828,30.486-41.118,40.977-43.773
			c0.946-0.241,2.958-0.393,2.958-0.393h61.646c6.19,0,11.209-5.02,11.209-11.208C418.52,208.603,413.506,203.583,407.314,203.583"
			/>
		<path fill="#E7E3BE" d="M214.025,264.819c3.392-3.649,8.441-5.358,13.411-5.045c0.381,0.027,0.69,0.073,1.055,0.101
			c-7.98-10.81-18.175-24.166-24.9-32.168c1.536-10.496,4.882-41.588-6.86-55.268c-4.001-4.652-7.554-8.087-13.584-8.087v44.833
			c0,0-6.909-2.79-10.306-3.654c-3.716-0.947-7.611-2.073-10.89-3.944c-15.652-8.933-28.419-18.371-36.521-26.694
			c5.061-5.173,10.754-10.239,15.311-13.041c3.492-2.147,5.766-5.812,5.766-9.914v-0.375c0-8.143-8.373-13.865-15.804-10.536
			c-4.41,1.973-8.624,4.557-12.216,7.381c3.391-6.916,4.842-23.762,2.27-37.823c-1.704-9.326-13.382-12.71-20.084-6.008
			c-2.863,2.864-4.081,6.967-3.223,10.923c1.765,8.099,4.242,21.705,1.396,26.889c-4.791,6.814-6.417,14.71-4.696,22.893
			c2.987,14.201,12.211,26.889,27.354,38.299h-16.813c-6.187,0-11.208,5.022-11.208,11.208c0,6.192,5.022,11.208,11.208,11.208
			h61.646c0,0,2.012,0.151,2.959,0.393c10.285,2.606,29.075,25.594,41.124,43.573C211.554,267.878,212.781,266.152,214.025,264.819"
			/>
	</g>
	<g>
		<path fill="#7F4011" d="M267.209,326.874v81.996c19.756-8.014,16.812-37.163,16.812-37.163c0-13.68,6.782-29.264,12.885-40.517
			c6.143-11.326,9.533-23.931,9.533-36.812v-1.127c0-1.988-0.086-3.832-0.212-5.594
			C284.638,287.774,267.209,305.265,267.209,326.874"/>
		<path fill="#7F4011" d="M205.767,287.655c-0.128,1.757-0.202,3.615-0.202,5.593v1.128c0,12.886,3.391,25.488,9.533,36.812
			c6.104,11.259,12.884,26.839,12.884,40.519c0,0-2.942,29.147,16.812,37.168v-82.002
			C244.795,305.258,227.354,287.768,205.767,287.655"/>
	</g>
</g>
</svg>
